<?xml version="1.0" encoding="utf-8"?>
<!-- Generator: Adobe Illustrator 16.2.1, SVG Export Plug-In . SVG Version: 6.00 Build 0)  -->
<!DOCTYPE svg PUBLIC "-//W3C//DTD SVG 1.1//EN" "http://www.w3.org/Graphics/SVG/1.1/DTD/svg11.dtd">
<svg version="1.1" xmlns="http://www.w3.org/2000/svg" xmlns:xlink="http://www.w3.org/1999/xlink" x="0px" y="0px" width="24px"
	 height="24px" viewBox="0 0 24 24" enable-background="new 0 0 24 24" xml:space="preserve">
<g id="Layer_1" display="none">
	<g display="inline">
		<path fill="none" d="M128.5-54.5c2.48-7.98-11.78-18.87-18-25c-23.32-22.98-54.38-37.21-102-36c-8.67,1.67-17.33,3.33-26,5
			c-23.22,7.04-47.2,21.15-60,39c48.33,20,96.67,40,145,60C87.83-25.83,108.17-40.17,128.5-54.5z M-96.5-47.5
			c-29.74,102.04,5.51,158.66,91,187h1c-6.67-51.66-13.33-103.34-20-155C-48.5-26.17-72.5-36.83-96.5-47.5z M140.5-31.5
			c-41.33,31-82.67,62-124,93c-6.44,14.66,4.66,59.86,6,79c72.09-2.92,113.32-54.46,124-120C149.72,0.72,143.07-16.57,140.5-31.5z"
			/>
	</g>
	<g display="inline">
		<g>
			<path fill="#FFFFFF" d="M21.59,6.16c0.22-0.71-1.04-1.67-1.59-2.21c-2.07-2.03-4.82-3.29-9.03-3.19c-0.77,0.15-1.54,0.3-2.3,0.44
				C6.6,1.82,4.48,3.07,3.35,4.65c4.28,1.77,8.56,3.54,12.84,5.31C17.99,8.7,19.79,7.43,21.59,6.16z M1.66,6.78
				c-2.63,9.03,0.49,14.05,8.06,16.56c0.03,0,0.06,0,0.09,0c-0.59-4.57-1.18-9.15-1.77-13.72C5.91,8.67,3.79,7.72,1.66,6.78z
				 M22.65,8.19c-3.66,2.74-7.32,5.49-10.98,8.23c-0.57,1.3,0.41,5.3,0.53,6.99c6.38-0.26,10.03-4.82,10.98-10.62
				C23.46,11.05,22.88,9.52,22.65,8.19z"/>
		</g>
	</g>
</g>
<g id="Layer_2">
	<g>
		<path fill="#FFFFFF" d="M22.24,5.77C20.14,2.32,16.34,0,12,0C8.35,0,5.09,1.63,2.89,4.21l13.7,5.59L22.24,5.77z"/>
		<path fill="#FFFFFF" d="M1.32,6.55C0.48,8.19,0,10.04,0,12c0,5.8,4.12,10.64,9.59,11.76L7.78,9.45L1.32,6.55z"/>
		<path fill="#FFFFFF" d="M24,12c0-1.41-0.26-2.76-0.71-4.02l-11.98,8.99l0.87,7.02C18.73,23.89,24,18.56,24,12z"/>
		<path fill="#FFFFFF" d="M12.19,24L12.19,24c-0.06-0.01-0.12,0-0.19,0H12.19z"/>
	</g>
</g>
</svg>
