<?xml version="1.0" encoding="utf-8"?>
<!-- Generator: Adobe Illustrator 16.2.1, SVG Export Plug-In . SVG Version: 6.00 Build 0)  -->
<!DOCTYPE svg PUBLIC "-//W3C//DTD SVG 1.1//EN" "http://www.w3.org/Graphics/SVG/1.1/DTD/svg11.dtd">
<svg version="1.1" id="Layer_1" xmlns="http://www.w3.org/2000/svg" xmlns:xlink="http://www.w3.org/1999/xlink" x="0px" y="0px"
	 width="24px" height="24px" viewBox="-174.5 22.5 24 24" enable-background="new -174.5 22.5 24 24" xml:space="preserve">
<g id="Layer_1_1_" display="none">
	<g display="inline">
		<path fill="none" d="M128.5-54.5c2.48-7.98-11.779-18.87-18-25c-23.32-22.98-54.38-37.21-102-36c-8.67,1.67-17.33,3.33-26,5
			c-23.22,7.04-47.2,21.15-60,39c48.33,20,96.67,40,145,60C87.83-25.83,108.17-40.17,128.5-54.5z M-96.5-47.5
			c-29.74,102.04,5.51,158.66,91,187h1c-6.67-51.66-13.33-103.34-20-155C-48.5-26.17-72.5-36.83-96.5-47.5z M140.5-31.5
			c-41.33,31-82.67,62-124,93c-6.44,14.66,4.66,59.859,6,79c72.09-2.92,113.32-54.46,124-120C149.721,0.72,143.07-16.57,140.5-31.5z
			"/>
	</g>
	<g display="inline">
		<g>
			<path fill="#FFFFFF" d="M21.59,6.16c0.221-0.71-1.04-1.67-1.59-2.21c-2.07-2.03-4.82-3.29-9.03-3.19
				c-0.77,0.15-1.54,0.3-2.3,0.44C6.6,1.82,4.48,3.07,3.35,4.65c4.28,1.77,8.56,3.54,12.839,5.31C17.99,8.7,19.79,7.43,21.59,6.16z
				 M1.66,6.78c-2.63,9.031,0.49,14.05,8.06,16.56c0.03,0,0.06,0,0.09,0c-0.59-4.57-1.18-9.15-1.77-13.72
				C5.91,8.67,3.79,7.72,1.66,6.78z M22.65,8.19c-3.66,2.74-7.32,5.49-10.98,8.23c-0.57,1.301,0.41,5.301,0.53,6.99
				c6.38-0.26,10.03-4.82,10.979-10.62C23.46,11.05,22.88,9.52,22.65,8.19z"/>
		</g>
	</g>
</g>
<g>
	<g>
		<path fill="#FFFFFF" d="M-152.536,24.487l-7.876,16.796v-8.236v-1h-1h-8.327L-152.536,24.487 M-150.5,22.5l-24,10.547h13.088
			v12.725L-150.5,22.5L-150.5,22.5z"/>
	</g>
</g>
</svg>
