<svg xmlns="http://www.w3.org/2000/svg" width="92" height="92" viewBox="0 0 92 92"><path fill="#fff" d="M23.1 33.7l13.7 13.6c3.4-3.3 6.7-6.6 10.1-10l-13.7-13.6-10.1 10zm35.5 15.1l-.6.6-9.4 9.3 24 23.7c1.7 1.7 4.4 1.7 6 0l4-4c1.7-1.7 1.7-4.3 0-6l-24-23.6zm-46.6-7.5l33.5-33.1.4-.4c.3-.4.3-1 .1-1.5-.2-.5-.7-.8-1.3-.8h-19.1c-.4 0-.7.2-1 .4l-24.2 24c-.5.5-.5 1.5 0 2l9.6 9.4c.5.6 1.4.6 2 0zm79-29.3c0-.1-.1-.2-.2-.3-.3-.3-.9-.4-1.3.2l-3.5 6.1c-1.3 2.2-4.1 2.9-6.3 1.7-1-.6-2-1.1-2.9-1.7-2.2-1.3-3-4.1-1.7-6.3l3.5-5.9c.4-.7.2-1.4-.5-1.5-3.8-.4-8.6 2.7-10.9 4.7-2.4 2.1-4.3 5.2-4.3 7.8.1 3.9.6 7.3-1.8 9.7l-30.4 30.2c-2.4 2.4-6.5 2.7-10.4 2.7-3.3 0-5.6.5-7.4 2.3l-.4.4c-4.1 4.4-5.3 9.9-3.3 17.1.1.5 1.1.9 1.5.2l3.6-6.1c1.3-2.2 4.1-2.9 6.3-1.7l2.9 1.7c2.2 1.3 3 4.1 1.7 6.3l-3.5 6c-.4.7-.2 1.4.5 1.5 3.6.5 8.4-2.7 10.7-4.7 2.4-2.1 4.3-5.2 4.3-7.8-.1-3.9-.7-7.3 1.8-9.7 10.2-10 20.4-20.1 30.5-30.1 2.4-2.4 6.5-2.7 10.4-2.7 3.5 0 5.9-.6 7.8-2.6 4.2-4.7 5.4-10.3 3.3-17.5z"/></svg>