<?xml version="1.0" encoding="utf-8"?>
<!-- Generator: Adobe Illustrator 16.2.1, SVG Export Plug-In . SVG Version: 6.00 Build 0)  -->
<!DOCTYPE svg PUBLIC "-//W3C//DTD SVG 1.1//EN" "http://www.w3.org/Graphics/SVG/1.1/DTD/svg11.dtd">
<svg version="1.1" id="Layer_1" xmlns="http://www.w3.org/2000/svg" xmlns:xlink="http://www.w3.org/1999/xlink" x="0px" y="0px"
	 width="24px" height="24px" viewBox="0 0 24 24" enable-background="new 0 0 24 24" xml:space="preserve">
<g>
	<g>
		<path fill="#454546" d="M23.253,5.173L9.27,5.273c-0.275,0-0.574-0.212-0.665-0.472L7.79,2.653C7.699,2.394,7.4,2.181,7.125,2.181
			H0.5c-0.275,0-0.5,0.225-0.5,0.5v1.992c0,0.275,0,0.725,0,1v0.124c0,0.275,0,0.725,0,1v11.688c0,0.275,0.225,0.5,0.5,0.5h10.138
			c-0.593-0.971-0.942-2.107-0.942-3.325c0-3.53,2.874-6.402,6.402-6.402c3.53,0,6.402,2.872,6.402,6.402
			c0,1.218-0.349,2.354-0.941,3.325h1.694c0.274,0,0.5-0.225,0.5-0.5V5.673C23.753,5.398,23.527,5.173,23.253,5.173z"/>
		<path fill="#454546" d="M16.098,10.103c-3.069,0-5.556,2.488-5.556,5.556c0,1.249,0.417,2.397,1.112,3.325
			c1.013,1.353,2.624,2.231,4.444,2.231s3.432-0.879,4.445-2.231c0.695-0.928,1.112-2.076,1.112-3.325
			C21.655,12.591,19.167,10.103,16.098,10.103z M15.584,18.984l-0.167,0.189l-0.215-0.189l-0.416-0.367l-2.773-2.398l0.887-1.026
			l2.393,2.07l3.852-4.374l1.018,0.897L15.584,18.984z"/>
	</g>
	<polygon fill="#FFFFFF" points="15.584,18.984 15.546,18.984 15.402,19.15 15.21,18.984 15.202,18.984 15.417,19.174 	"/>
	<polygon fill="#FFFFFF" points="14.786,18.617 15.202,18.984 15.21,18.984 	"/>
	<polygon fill="#FFFFFF" points="15.402,19.15 15.546,18.984 15.21,18.984 	"/>
</g>
</svg>
