<?xml version="1.0" encoding="utf-8"?>
<!-- Generator: Adobe Illustrator 16.2.1, SVG Export Plug-In . SVG Version: 6.00 Build 0)  -->
<!DOCTYPE svg PUBLIC "-//W3C//DTD SVG 1.1//EN" "http://www.w3.org/Graphics/SVG/1.1/DTD/svg11.dtd">
<svg version="1.1" id="Layer_1" xmlns="http://www.w3.org/2000/svg" xmlns:xlink="http://www.w3.org/1999/xlink" x="0px" y="0px"
	 width="24px" height="24px" viewBox="0 0 24 24" enable-background="new 0 0 24 24" xml:space="preserve">
<path fill="#454546" d="M9.27,5.273c-0.275,0-0.574-0.212-0.665-0.472L7.79,2.653C7.699,2.394,7.4,2.181,7.125,2.181H0.5
	c-0.275,0-0.5,0.225-0.5,0.5v1.992c0,0.275,0,0.725,0,1v0.124c0,0.275,0,0.725,0,1v11.688c0,0.275,0.225,0.5,0.5,0.5h22.753
	c0.275,0,0.5-0.225,0.5-0.5V5.673c0-0.275-0.225-0.5-0.5-0.5L9.27,5.273z"/>
</svg>
