<?xml version="1.0" encoding="utf-8"?>
<!-- Generator: Adobe Illustrator 16.2.1, SVG Export Plug-In . SVG Version: 6.00 Build 0)  -->
<!DOCTYPE svg PUBLIC "-//W3C//DTD SVG 1.1//EN" "http://www.w3.org/Graphics/SVG/1.1/DTD/svg11.dtd">
<svg version="1.1" id="Layer_1" xmlns="http://www.w3.org/2000/svg" xmlns:xlink="http://www.w3.org/1999/xlink" x="0px" y="0px"
	 width="24px" height="24px" viewBox="0 0 24 24" enable-background="new 0 0 24 24" xml:space="preserve">
<path fill="#FF453E" d="M3.512,3.505C5.771,1.245,8.779,0,11.984,0c2.641,0,5.242,0.882,7.323,2.484
	c0.47,0.362,0.846,0.688,1.181,1.023c2.266,2.265,3.513,5.28,3.512,8.491c0,3.209-1.248,6.225-3.513,8.488l-0.378,0.377l-1.498-1.5
	l0.377-0.379c1.864-1.863,2.892-4.346,2.892-6.99c0-2.643-1.026-5.124-2.892-6.988c-1.163-1.162-2.605-2.021-4.172-2.484
	c-0.912-0.269-1.859-0.406-2.815-0.406c-2.644,0-5.126,1.027-6.991,2.892c-1.864,1.864-2.891,4.346-2.891,6.989
	s1.026,5.125,2.891,6.988l0.378,0.379l-1.499,1.498l-0.377-0.377C-1.17,15.805-1.17,8.188,3.512,3.505z"/>
<path fill="#FF453E" d="M19.02,18.358l-0.752,0.754l-6.621-5.76c-0.173-0.014-0.334-0.059-0.48-0.133
	c-0.715-0.354-1.006-1.222-0.654-1.935c0.07-0.143,0.162-0.27,0.271-0.381c0,0,0,0,0.002,0c0.438-0.438,1.105-0.547,1.66-0.273
	c0.446,0.221,0.742,0.65,0.795,1.135L19.02,18.358z"/>
</svg>
