<?xml version="1.0" encoding="utf-8"?>
<!-- Generator: Adobe Illustrator 16.2.1, SVG Export Plug-In . SVG Version: 6.00 Build 0)  -->
<!DOCTYPE svg PUBLIC "-//W3C//DTD SVG 1.1//EN" "http://www.w3.org/Graphics/SVG/1.1/DTD/svg11.dtd">
<svg version="1.1" id="Layer_1" xmlns="http://www.w3.org/2000/svg" xmlns:xlink="http://www.w3.org/1999/xlink" x="0px" y="0px"
	 width="24px" height="24px" viewBox="0 0 24 24" enable-background="new 0 0 24 24" xml:space="preserve">
<path fill="#7FBA60" d="M20.488,3.505C18.229,1.245,15.221,0,12.015,0c-2.64,0-5.241,0.882-7.323,2.484
	c-0.47,0.362-0.846,0.688-1.181,1.023C1.247,5.772-0.001,8.787,0,11.998c0,3.209,1.248,6.225,3.513,8.488l0.378,0.377l1.498-1.5
	l-0.377-0.379c-1.864-1.863-2.891-4.346-2.891-6.99c0-2.643,1.027-5.124,2.891-6.988c1.164-1.162,2.606-2.021,4.172-2.484
	c0.913-0.269,1.86-0.406,2.816-0.406c2.644,0,5.126,1.027,6.991,2.892c1.864,1.864,2.891,4.346,2.891,6.989
	s-1.026,5.125-2.891,6.988l-0.378,0.379l1.499,1.498l0.377-0.377C25.17,15.805,25.17,8.188,20.488,3.505z"/>
<path fill="#7FBA60" d="M4.98,18.358l0.751,0.754l6.622-5.76c0.173-0.014,0.334-0.059,0.48-0.133
	c0.715-0.354,1.006-1.222,0.654-1.935c-0.07-0.143-0.162-0.27-0.271-0.381c0,0,0,0-0.002,0c-0.438-0.438-1.105-0.547-1.66-0.273
	c-0.446,0.221-0.742,0.65-0.795,1.135L4.98,18.358z"/>
</svg>
