<?xml version="1.0" encoding="utf-8"?>
<!-- Generator: Adobe Illustrator 16.2.1, SVG Export Plug-In . SVG Version: 6.00 Build 0)  -->
<!DOCTYPE svg PUBLIC "-//W3C//DTD SVG 1.1//EN" "http://www.w3.org/Graphics/SVG/1.1/DTD/svg11.dtd">
<svg version="1.1" id="Layer_1" xmlns="http://www.w3.org/2000/svg" xmlns:xlink="http://www.w3.org/1999/xlink" x="0px" y="0px"
	 width="24px" height="24px" viewBox="0 0 24 24" enable-background="new 0 0 24 24" xml:space="preserve">
<path fill="#3E9FC3" d="M20.493,3.505C18.234,1.245,15.226,0,12.02,0C9.38,0,6.779,0.882,4.697,2.484
	c-0.47,0.362-0.846,0.688-1.181,1.023c-2.265,2.265-3.513,5.28-3.512,8.49c0,3.209,1.248,6.225,3.513,8.489l0.378,0.377l1.498-1.5
	l-0.377-0.379c-1.864-1.863-2.891-4.346-2.891-6.99c0-2.643,1.027-5.125,2.891-6.989C6.18,3.844,7.622,2.985,9.188,2.522
	c0.913-0.269,1.86-0.406,2.816-0.406c2.644,0,5.126,1.027,6.991,2.892c1.864,1.864,2.891,4.346,2.891,6.989
	c0,2.642-1.026,5.125-2.891,6.988l-0.378,0.379l1.499,1.498l0.377-0.377C25.175,15.805,25.175,8.188,20.493,3.505z"/>
<path fill="#3E9FC3" d="M12.599,2.531l-1.064-0.002l-0.609,8.755c-0.112,0.133-0.193,0.276-0.246,0.434
	c-0.254,0.755,0.153,1.575,0.906,1.831c0.149,0.051,0.305,0.076,0.461,0.076c0,0,0,0,0.001,0c0.619,0,1.168-0.395,1.368-0.98
	c0.159-0.472,0.064-0.985-0.241-1.365L12.599,2.531z"/>
</svg>
