<?xml version="1.0" encoding="utf-8"?>
<!-- Generator: Adobe Illustrator 16.2.1, SVG Export Plug-In . SVG Version: 6.00 Build 0)  -->
<!DOCTYPE svg PUBLIC "-//W3C//DTD SVG 1.1//EN" "http://www.w3.org/Graphics/SVG/1.1/DTD/svg11.dtd">
<svg version="1.1" id="Layer_1" xmlns="http://www.w3.org/2000/svg" xmlns:xlink="http://www.w3.org/1999/xlink" x="0px" y="0px"
	 width="24px" height="24px" viewBox="0 0 24 24" enable-background="new 0 0 24 24" xml:space="preserve">
<g>
	<path fill="#878C90" d="M20.393,18.907c0.034-0.07,0.052-0.145,0.074-0.221C20.445,18.762,20.431,18.838,20.393,18.907z"/>
	<path fill="#878C90" d="M19.425,19.5H1.117c-0.251,0-0.473-0.095-0.624-0.268c-0.15-0.17-0.215-0.395-0.186-0.634L1.933,8.292
		C2,7.775,2.497,7.343,3.021,7.343h18.738c-0.023-0.725,0.07-1.312-0.659-1.312H9.567c-0.743,0-1.12-0.171-1.453-0.835L7.861,4.692
		c-0.333-0.666-0.285-1.209-1.03-1.209H0.918C0.175,3.483,0,3.663,0,4.407v14.367c0,0.744,0.249,0.896,0.992,0.896h18.197
		c0.516,0,0.952-0.302,1.18-0.729C20.172,19.268,19.808,19.5,19.425,19.5z"/>
</g>
<path fill="#878C90" d="M23.911,9.793c0.43-1.256-0.312-1.281-0.916-1.281H4.534c-0.745,0-0.925,0.576-1.165,1.281l-2.933,8.597
	c-0.241,0.704,0.171,1.28,0.915,1.28h17.837c1.056,0,1.324-0.066,1.79-1.28L23.911,9.793z"/>
</svg>
