<?xml version="1.0" encoding="utf-8"?>
<!-- Generator: Adobe Illustrator 16.2.1, SVG Export Plug-In . SVG Version: 6.00 Build 0)  -->
<!DOCTYPE svg PUBLIC "-//W3C//DTD SVG 1.1//EN" "http://www.w3.org/Graphics/SVG/1.1/DTD/svg11.dtd">
<svg version="1.1" id="twitter" xmlns="http://www.w3.org/2000/svg" xmlns:xlink="http://www.w3.org/1999/xlink" x="0px" y="0px"
	 width="40px" height="40px" viewBox="0 0 40 40" enable-background="new 0 0 40 40" xml:space="preserve">
<path fill="#FFFFFF" d="M29.61,14.06c-0.71,0.31-1.47,0.52-2.26,0.62c0.81-0.49,1.44-1.26,1.73-2.17c-0.76,0.45-1.61,0.78-2.5,0.95
	c-0.72-0.76-1.74-1.24-2.88-1.24c-2.18,0-3.94,1.76-3.94,3.93c0,0.31,0.03,0.61,0.1,0.89c-3.28-0.16-6.18-1.73-8.13-4.1
	c-0.34,0.58-0.53,1.25-0.53,1.97c0,1.36,0.7,2.57,1.75,3.27c-0.65-0.02-1.25-0.2-1.79-0.49c0,0.02,0,0.03,0,0.05
	c0,1.9,1.36,3.49,3.16,3.85c-0.33,0.09-0.68,0.14-1.04,0.14c-0.25,0-0.5-0.02-0.74-0.07c0.5,1.56,1.96,2.7,3.68,2.73
	c-1.35,1.05-3.05,1.68-4.9,1.68c-0.32,0-0.63-0.02-0.94-0.06c1.75,1.12,3.82,1.77,6.04,1.77c7.25,0,11.22-5.99,11.22-11.18
	c0-0.17,0-0.34-0.01-0.51C28.41,15.54,29.08,14.85,29.61,14.06z"/>
</svg>
