<?xml version="1.0" encoding="utf-8"?>
<!-- Generator: Adobe Illustrator 16.2.1, SVG Export Plug-In . SVG Version: 6.00 Build 0)  -->
<!DOCTYPE svg PUBLIC "-//W3C//DTD SVG 1.1//EN" "http://www.w3.org/Graphics/SVG/1.1/DTD/svg11.dtd">
<svg version="1.1" id="youtube" xmlns="http://www.w3.org/2000/svg" xmlns:xlink="http://www.w3.org/1999/xlink" x="0px" y="0px"
	 width="40px" height="40px" viewBox="0 0 40 40" enable-background="new 0 0 40 40" xml:space="preserve">
<path fill="#FFFFFF" d="M20.57,12.05c1.97,0.03,3.94,0.05,5.91,0.09c0.8,0.02,1.6,0.09,2.4,0.17c0.66,0.06,1.13,0.44,1.48,0.96
	c0.49,0.72,0.7,1.55,0.85,2.39c0.36,2.01,0.3,4.03,0.26,6.06c-0.03,1.31-0.16,2.61-0.54,3.86c-0.18,0.59-0.45,1.15-0.9,1.59
	c-0.32,0.31-0.69,0.52-1.14,0.54c-1.41,0.08-2.82,0.2-4.23,0.23c-2.76,0.04-5.52,0.06-8.29,0.04c-1.68-0.02-3.36-0.13-5.04-0.22
	c-0.84-0.04-1.41-0.52-1.83-1.21c-0.44-0.74-0.61-1.57-0.74-2.4c-0.36-2.34-0.3-4.7-0.12-7.05c0.06-0.83,0.24-1.66,0.41-2.48
	c0.06-0.31,0.22-0.6,0.35-0.9c0.43-1.02,1.25-1.46,2.32-1.49c2.95-0.08,5.9-0.16,8.85-0.24C20.57,12.02,20.57,12.03,20.57,12.05z
	 M17.7,15.82c0,2.82,0,5.58,0,8.4c2.2-1.4,4.35-2.78,6.56-4.19C22.05,18.61,19.89,17.22,17.7,15.82z"/>
</svg>
