<?xml version="1.0" encoding="utf-8"?>
<!-- Generator: Adobe Illustrator 16.2.1, SVG Export Plug-In . SVG Version: 6.00 Build 0)  -->
<!DOCTYPE svg PUBLIC "-//W3C//DTD SVG 1.1//EN" "http://www.w3.org/Graphics/SVG/1.1/DTD/svg11.dtd">
<svg version="1.1" id="gas" xmlns="http://www.w3.org/2000/svg" xmlns:xlink="http://www.w3.org/1999/xlink" x="0px" y="0px"
	 width="24px" height="24px" viewBox="0 0 24 24" enable-background="new 0 0 24 24" xml:space="preserve">
<path fill="#377db3" d="M5.87,8.48c-0.26-0.79,0.16-1.64,0.95-1.9l9-3c0.79-0.27,1.64,0.16,1.9,0.95c0.26,0.79-0.16,1.63-0.95,1.9
	l-9,3C7.61,9.48,7.45,9.5,7.29,9.5C6.66,9.5,6.08,9.1,5.87,8.48z M7.29,5c0.16,0,0.32-0.03,0.47-0.08l6-2
	c0.79-0.26,1.21-1.11,0.95-1.9c-0.26-0.79-1.11-1.22-1.9-0.95l-6,2c-0.79,0.26-1.21,1.11-0.95,1.9C6.08,4.61,6.66,5,7.29,5z
	 M8.81,15.75h2.96c0.03-0.18,0.04-0.36,0-0.54c-0.17-0.85-0.53-1.62-1.05-2.27l6.05-2.02c0.79-0.26,1.21-1.11,0.95-1.9
	c-0.26-0.79-1.11-1.21-1.9-0.95l-9,3c-0.64,0.22-1.06,0.84-1.02,1.52c0.04,0.68,0.54,1.24,1.2,1.38
	C7.91,14.15,8.61,14.85,8.81,15.75z M16.29,12.28c-2.38,0-4.32,1.87-4.47,4.22H8.79c-0.83,0-1.5,0.67-1.5,1.5v1.5
	c0,0.83,0.67,1.5,1.5,1.5v1.5c0,0.83,0.67,1.5,1.5,1.5h3c0.83,0,1.5-0.67,1.5-1.5V21c0.83,0,1.5-0.67,1.5-1.5V18
	c0-0.81-0.64-1.46-1.45-1.49c0.13-0.69,0.71-1.23,1.45-1.23c0.83,0,1.5-0.67,1.5-1.5S17.12,12.28,16.29,12.28z"/>
</svg>
