<?xml version="1.0" encoding="utf-8"?>
<!-- Generator: Adobe Illustrator 16.2.1, SVG Export Plug-In . SVG Version: 6.00 Build 0)  -->
<!DOCTYPE svg PUBLIC "-//W3C//DTD SVG 1.1//EN" "http://www.w3.org/Graphics/SVG/1.1/DTD/svg11.dtd">
<svg version="1.1" id="gas" xmlns="http://www.w3.org/2000/svg" xmlns:xlink="http://www.w3.org/1999/xlink" x="0px" y="0px"
	 width="24px" height="24px" viewBox="0 0 24 24" enable-background="new 0 0 24 24" xml:space="preserve">
<path fill-rule="evenodd" clip-rule="evenodd" fill="#f0403a" d="M5.86,7.62c0.03,1.58,0.07,3.03,0.89,4.28
	c0.28,0.43,0.65,0.81,1.06,1.2C6.81,7.71,7.67,3.1,12.72,0c-0.12,0.45-0.23,0.77-0.28,1.1c-0.26,1.54,0.23,2.88,1.26,3.96
	c0.77,0.81,1.66,1.51,2.56,2.18c3.69,2.78,5.01,7.31,3.3,11.44c-1.58,3.79-5.5,5.95-9.37,5.17c-3.89-0.79-6.76-4.29-6.9-8.35
	c-0.09-2.67,0.37-5.14,2.05-7.27C5.47,8.05,5.62,7.89,5.86,7.62z M12.72,14.52c-0.88,2.61-2.62,4.16-5.27,4.67
	c1.54,1.99,4.53,2.65,6.94,1.6c2.45-1.07,4.03-3.79,3.72-6.39c-0.32-2.68-2.24-5.06-4.32-5.37c2.13,3.71,1.47,7.64-1.65,9.34
	C12.68,17.1,12.99,15.86,12.72,14.52z"/>
</svg>
