<?xml version="1.0" encoding="utf-8"?>
<!-- Generator: Adobe Illustrator 16.2.1, SVG Export Plug-In . SVG Version: 6.00 Build 0)  -->
<!DOCTYPE svg PUBLIC "-//W3C//DTD SVG 1.1//EN" "http://www.w3.org/Graphics/SVG/1.1/DTD/svg11.dtd">
<svg version="1.1" id="Layer_1" xmlns="http://www.w3.org/2000/svg" xmlns:xlink="http://www.w3.org/1999/xlink" x="0px" y="0px"
	 width="213.75px" height="28px" viewBox="0 0 213.75 28" enable-background="new 0 0 213.75 28" xml:space="preserve">
<g>
	<g>
		<path fill="#838585" d="M8.54,10.09l4.47,4.38c1.1-1.07,2.19-2.14,3.28-3.22l-4.47-4.38L8.54,10.09z M20.07,14.95
			c-0.07,0.07-0.13,0.13-0.21,0.2c-1.02,1.01-2.04,2.01-3.07,3.02l7.81,7.64c0.54,0.53,1.43,0.53,1.97,0l1.31-1.29
			c0.54-0.53,0.54-1.39,0-1.92L20.07,14.95z M4.9,12.55L15.82,1.87c0.04-0.04,0.09-0.09,0.13-0.14c0.09-0.13,0.11-0.32,0.03-0.47
			c-0.08-0.15-0.24-0.24-0.41-0.24H9.34c-0.12,0-0.24,0.05-0.33,0.13L1.13,8.86c-0.17,0.17-0.17,0.48,0,0.64l3.12,3.05
			C4.42,12.72,4.73,12.72,4.9,12.55z M30.57,2.99c-0.11-0.09-0.31-0.12-0.41,0.05L29,5.01c-0.42,0.71-1.34,0.95-2.06,0.54
			c-0.32-0.18-0.64-0.36-0.96-0.53C25.25,4.6,25.01,3.7,25.43,3l1.13-1.92c0.14-0.24,0.06-0.44-0.17-0.47
			c-1.18-0.14-2.75,0.87-3.49,1.53c-0.78,0.69-1.41,1.68-1.4,2.52c0.02,1.27,0.21,2.35-0.58,3.12c-3.31,3.24-6.63,6.48-9.94,9.73
			c-0.8,0.78-2.11,0.87-3.38,0.86c-1.08-0.01-1.83,0.18-2.43,0.73c-0.04,0.04-0.08,0.08-0.12,0.12c-1.34,1.47-1.73,3.25-1.07,5.57
			c0.05,0.16,0.35,0.29,0.49,0.06l1.17-1.98c0.41-0.71,1.34-0.95,2.06-0.54c0.32,0.18,0.63,0.36,0.95,0.54
			c0.72,0.41,0.97,1.31,0.56,2.02l-1.14,1.92c-0.14,0.24-0.05,0.44,0.18,0.47c1.18,0.15,2.75-0.87,3.49-1.52
			c0.77-0.69,1.41-1.68,1.4-2.53c-0.02-1.27-0.21-2.35,0.57-3.12c3.31-3.24,6.63-6.48,9.94-9.73c0.8-0.78,2.1-0.87,3.37-0.86
			c1.15,0.01,1.94-0.19,2.54-0.85c1.36-1.47,1.74-3.25,1.08-5.57C30.64,3.06,30.61,3.02,30.57,2.99z M47.85,4.4
			c-5.39,0-8.83,3.9-8.83,10.05c0,6.17,3.42,10.06,8.83,10.06c5.41,0,8.83-3.89,8.83-10.06C56.68,8.3,53.25,4.4,47.85,4.4z
			 M47.85,23.51c-4.71,0-7.71-3.52-7.71-9.06c0-5.52,2.99-9.04,7.71-9.04c4.71,0,7.71,3.52,7.71,9.04
			C55.56,19.99,52.56,23.51,47.85,23.51z M60.57,12.53h-0.04V9.65h-1v14.58h1.07v-9.06c0-2.75,1.45-4.71,3.78-4.71
			c0.7,0,1.23,0.15,1.53,0.29V9.7c-0.27-0.11-0.81-0.24-1.37-0.24C62.57,9.46,61.17,10.54,60.57,12.53z M72.77,9.46
			c-3.12,0-5.31,1.73-5.57,4.43h1.03c0.35-2.21,2.02-3.47,4.53-3.47c2.67,0,4.23,1.5,4.23,4.05v1.3l-5.07,0.37
			c-3.47,0.26-5.28,1.68-5.28,4.17c0,2.44,2,4.12,4.9,4.12c2.51,0,4.72-1.36,5.45-3.33h0.03v3.14h1.03v-9.83
			C78.05,11.35,76.02,9.46,72.77,9.46z M76.99,18.82c0,2.59-2.36,4.66-5.31,4.66c-2.31,0-3.97-1.33-3.97-3.18
			c0-1.95,1.52-3.09,4.35-3.29l4.93-0.37V18.82z M87,10.42c2.56,0,4.42,1.53,4.84,3.61h1.06c-0.44-2.57-2.73-4.57-5.9-4.57
			c-3.95,0-6.51,2.92-6.51,7.49c0,4.59,2.56,7.47,6.52,7.47c3.13,0,5.44-1.83,5.89-4.46h-1.07c-0.44,2.1-2.29,3.51-4.82,3.51
			c-3.34,0-5.45-2.53-5.45-6.53C81.56,12.96,83.67,10.42,87,10.42z M95.48,24.23h1.07V3.83h-1.07V24.23z M105.69,9.46
			c-3.89,0-6.48,2.98-6.48,7.5c0,4.68,2.59,7.46,6.59,7.46c3.27,0,5.55-1.8,6.03-4.27h-1.09c-0.42,1.91-2.22,3.32-4.93,3.32
			c-3.32,0-5.52-2.33-5.52-6.31V17.1H112V16.5C112,12.26,109.51,9.46,105.69,9.46z M100.31,16.21c0.16-3.48,2.29-5.81,5.36-5.81
			c3.12,0,5.23,2.35,5.24,5.81H100.31z M114.92,24.23h1.91V14.8h9.61v-1.61h-9.61V6.04h10.83V4.43h-12.74V24.23z M129.7,7.23h1.77
			v-2.8h-1.77V7.23z M129.7,24.23h1.77V9.92h-1.77V24.23z M146.26,9.92h-2.22l-4.05,5.43l-4.14-5.43h-2.22l5.2,6.88l-5.62,7.43h2.19
			l4.47-6.02l4.55,6.02h2.25l-5.65-7.46L146.26,9.92z M148.88,24.23h1.91V4.43h-1.91V24.23z M157.45,5.62h-1.77v4.3h-2.53v1.47h2.53
			v9.79c-0.02,1.22,0.21,2.06,0.67,2.51c0.47,0.46,1.29,0.68,2.47,0.68c0.26,0,0.53-0.01,0.79-0.03c0.26-0.02,0.52-0.03,0.78-0.03
			v-1.47c-0.51,0.05-1.01,0.08-1.52,0.08c-0.64-0.04-1.04-0.21-1.2-0.54s-0.24-0.77-0.24-1.35v-9.65h2.95V9.92h-2.95V5.62z
			 M163.29,24.23h1.91V14.8h9.61v-1.61h-9.61V6.04h10.82V4.43h-12.73V24.23z M189.1,21.7v-7.6c0-0.96-0.16-1.74-0.48-2.34
			c-0.32-0.6-0.73-1.07-1.23-1.4c-0.51-0.33-1.08-0.56-1.71-0.68c-0.64-0.12-1.28-0.18-1.91-0.18c-0.84,0-1.61,0.09-2.31,0.28
			c-0.69,0.19-1.3,0.47-1.81,0.86c-0.51,0.39-0.93,0.89-1.22,1.49c-0.3,0.61-0.48,1.33-0.54,2.16h1.77
			c0.04-1.17,0.41-2.01,1.12-2.54c0.71-0.53,1.63-0.79,2.75-0.79c0.53,0,1.02,0.04,1.47,0.13c0.46,0.08,0.87,0.23,1.21,0.45
			c0.35,0.22,0.61,0.52,0.82,0.9c0.19,0.38,0.29,0.86,0.29,1.46c0,0.39-0.05,0.7-0.16,0.94c-0.11,0.24-0.25,0.43-0.43,0.57
			c-0.19,0.14-0.43,0.24-0.71,0.29c-0.28,0.05-0.61,0.1-0.98,0.14c-0.96,0.11-1.9,0.23-2.83,0.35c-0.93,0.12-1.76,0.33-2.5,0.62
			c-0.74,0.3-1.34,0.73-1.79,1.29c-0.45,0.56-0.67,1.34-0.67,2.34c0,0.72,0.13,1.34,0.38,1.87c0.25,0.53,0.6,0.96,1.04,1.3
			c0.45,0.34,0.96,0.59,1.55,0.75s1.22,0.24,1.9,0.24c0.72,0,1.33-0.07,1.84-0.19c0.51-0.13,0.97-0.32,1.38-0.56
			c0.4-0.24,0.77-0.54,1.09-0.9c0.33-0.36,0.65-0.77,0.97-1.23h0.05c0,0.37,0.02,0.71,0.07,1.01c0.04,0.31,0.14,0.57,0.29,0.79
			s0.36,0.39,0.63,0.51c0.27,0.12,0.63,0.18,1.08,0.18c0.24,0,0.44-0.01,0.6-0.03c0.16-0.02,0.35-0.05,0.55-0.08v-1.47
			c-0.17,0.08-0.35,0.11-0.56,0.11C189.44,22.76,189.1,22.4,189.1,21.7z M187.33,18.68c0,0.7-0.14,1.33-0.41,1.88
			c-0.27,0.56-0.64,1.03-1.1,1.42c-0.45,0.39-0.99,0.69-1.62,0.89c-0.61,0.2-1.26,0.3-1.94,0.3c-0.41,0-0.82-0.06-1.21-0.19
			c-0.39-0.13-0.74-0.32-1.04-0.57c-0.3-0.25-0.54-0.54-0.72-0.88c-0.18-0.35-0.27-0.74-0.27-1.18c0-0.7,0.21-1.25,0.63-1.63
			c0.42-0.37,0.96-0.67,1.62-0.87s1.38-0.35,2.18-0.46c0.79-0.1,1.57-0.21,2.32-0.35c0.24-0.04,0.53-0.1,0.84-0.19
			c0.32-0.09,0.54-0.24,0.65-0.44h0.06V18.68z M202.29,17.54c-0.38-0.32-0.83-0.57-1.32-0.77c-0.5-0.19-0.99-0.32-1.5-0.4
			l-2.37-0.53c-0.29-0.08-0.62-0.17-0.98-0.29c-0.36-0.12-0.69-0.27-0.98-0.46c-0.3-0.19-0.55-0.41-0.75-0.68
			c-0.19-0.27-0.29-0.6-0.29-0.99c0-0.46,0.1-0.85,0.31-1.17c0.2-0.31,0.48-0.57,0.82-0.76s0.71-0.33,1.11-0.41
			c0.4-0.08,0.8-0.13,1.2-0.13c0.51,0,0.98,0.06,1.44,0.18c0.45,0.12,0.84,0.31,1.19,0.57c0.35,0.26,0.62,0.59,0.83,0.98
			c0.21,0.4,0.32,0.87,0.34,1.4h1.77c-0.03-0.77-0.19-1.45-0.48-2.03s-0.66-1.05-1.14-1.44c-0.48-0.39-1.03-0.67-1.65-0.86
			c-0.63-0.19-1.31-0.28-2.04-0.28c-0.64,0-1.28,0.07-1.92,0.22c-0.65,0.15-1.23,0.38-1.76,0.69c-0.52,0.32-0.95,0.73-1.28,1.25
			c-0.33,0.52-0.49,1.14-0.49,1.86c0,0.61,0.1,1.12,0.31,1.54c0.21,0.42,0.49,0.77,0.86,1.05c0.37,0.29,0.79,0.53,1.28,0.72
			c0.49,0.19,1.02,0.36,1.6,0.51l2.28,0.5c0.4,0.09,0.78,0.2,1.17,0.33c0.38,0.13,0.73,0.29,1.02,0.48c0.3,0.19,0.54,0.43,0.72,0.72
			c0.18,0.29,0.27,0.64,0.27,1.07c0,0.5-0.13,0.92-0.38,1.26c-0.25,0.34-0.58,0.62-0.97,0.85c-0.4,0.22-0.82,0.38-1.28,0.47
			c-0.46,0.09-0.91,0.14-1.33,0.14c-1.18,0-2.17-0.3-2.97-0.9c-0.79-0.6-1.23-1.49-1.31-2.67h-1.77c0.15,1.76,0.75,3.03,1.81,3.83
			c1.06,0.79,2.44,1.19,4.15,1.19c0.67,0,1.36-0.08,2.05-0.22c0.69-0.15,1.32-0.39,1.87-0.73c0.56-0.35,1.01-0.79,1.36-1.33
			c0.35-0.55,0.53-1.21,0.53-1.98c0-0.63-0.12-1.17-0.36-1.64C202.99,18.25,202.68,17.86,202.29,17.54z M211.92,11.39V9.92h-2.95
			v-4.3h-1.77v4.3h-2.53v1.47h2.53v9.79c-0.02,1.22,0.21,2.06,0.68,2.51c0.46,0.46,1.29,0.68,2.47,0.68c0.26,0,0.53-0.01,0.79-0.03
			c0.26-0.02,0.52-0.03,0.78-0.03v-1.47c-0.51,0.05-1.01,0.08-1.52,0.08c-0.64-0.04-1.04-0.21-1.2-0.54
			c-0.16-0.32-0.24-0.77-0.24-1.35v-9.65H211.92z"/>
	</g>
</g>
</svg>
